<?xml version="1.0" encoding="UTF-8" standalone="no"?>
<!-- Created with Inkscape (http://www.inkscape.org/) -->

<svg
   width="155.33615mm"
   height="155.33603mm"
   viewBox="0 0 155.33615 155.33603"
   version="1.1"
   id="svg5"
   xml:space="preserve"
   inkscape:version="1.2.2 (732a01da63, 2022-12-09)"
   sodipodi:docname="gofer_icon.svg"
   xmlns:inkscape="http://www.inkscape.org/namespaces/inkscape"
   xmlns:sodipodi="http://sodipodi.sourceforge.net/DTD/sodipodi-0.dtd"
   xmlns="http://www.w3.org/2000/svg"
   xmlns:svg="http://www.w3.org/2000/svg"><sodipodi:namedview
     id="namedview7"
     pagecolor="#ffffff"
     bordercolor="#000000"
     borderopacity="0.25"
     inkscape:showpageshadow="2"
     inkscape:pageopacity="0.0"
     inkscape:pagecheckerboard="0"
     inkscape:deskcolor="#d1d1d1"
     inkscape:document-units="mm"
     showgrid="false"
     inkscape:zoom="0.73851712"
     inkscape:cx="250.50198"
     inkscape:cy="295.86315"
     inkscape:window-width="1350"
     inkscape:window-height="1032"
     inkscape:window-x="766"
     inkscape:window-y="3"
     inkscape:window-maximized="0"
     inkscape:current-layer="layer1" /><defs
     id="defs2" /><g
     inkscape:label="Layer 1"
     inkscape:groupmode="layer"
     id="layer1"
     transform="translate(-17.271673,-127.61673)"><path
       style="fill:#ea833a;fill-opacity:1;stroke:#ea833a;stroke-width:0.529167;stroke-opacity:1"
       id="path356"
       sodipodi:type="arc"
       sodipodi:cx="94.93969"
       sodipodi:cy="205.28468"
       sodipodi:rx="77.384804"
       sodipodi:ry="77.384804"
       sodipodi:start="4.9765446"
       sodipodi:end="4.9712562"
       sodipodi:open="true"
       sodipodi:arc-type="arc"
       d="m 115.14442,130.5841 a 77.384804,77.384804 0 0 1 54.5225,94.80653 77.384804,77.384804 0 0 1 -94.734366,54.6478 77.384804,77.384804 0 0 1 -54.772996,-94.66203 77.384804,77.384804 0 0 1 94.589532,-54.8981"
       inkscape:export-filename="golfer_icon.png"
       inkscape:export-xdpi="96"
       inkscape:export-ydpi="96" /><path
       style="fill:#ffffff;stroke-width:0.20746"
       d="m 93.165111,259.57461 c -1.19617,-0.60531 -1.94288,-1.32826 -2.54356,-2.46262 -0.39023,-0.73695 -0.6003,-2.45355 -0.419,-3.424 0.0896,-0.47963 2.13411,-5.37697 4.54336,-10.88296 l 4.38043,-10.01092 -0.42071,-8.58426 -0.4207,-8.58427 -4.81716,-12.10641 -4.817154,-12.10642 -0.0048,-1.97087 c -0.0042,-1.73452 0.06637,-2.12597 0.588589,-3.26424 0.372485,-0.8119 0.955815,-1.62281 1.567005,-2.17833 0.92478,-0.84058 4.39668,-2.84162 5.31494,-3.0633 0.23633,-0.0571 3.48648,-1.27069 7.222559,-2.69698 l 6.79287,-2.59325 -0.12058,-0.62238 c -0.18973,-0.97924 -1.48554,-3.56753 -2.69934,-5.39175 -1.09376,-1.64383 -1.1117,-1.69589 -1.25292,-3.63568 -0.19233,-2.64194 -0.7763,-4.89321 -1.87084,-7.21236 l -0.90853,-1.92503 1.28632,0.88687 c 1.90169,1.31113 6.08418,5.58404 7.67266,7.8385 1.83931,2.61047 4.20426,7.36106 5.33476,10.71618 0.85056,2.52431 0.89604,2.76834 0.66175,3.55035 -0.43408,1.44883 -1.08736,1.89598 -6.10718,4.18027 -2.59584,1.18125 -4.71972,2.26623 -4.71972,2.41107 0,0.14484 1.12512,3.88987 2.50027,8.32229 3.75326,12.09766 3.58588,11.37226 3.58283,15.52753 -0.003,3.42297 -0.0523,3.83103 -1.69106,13.85831 l -1.68846,10.33148 -4.80656,11.50338 c -3.59466,8.60295 -4.98727,11.71449 -5.523289,12.3407 -1.00418,1.17316 -2.13859,1.70037 -3.88777,1.80683 -1.30827,0.0796 -1.57879,0.0243 -2.72902,-0.55773 z m 30.766949,-0.0167 c -0.89511,-0.2683 -1.95018,-1.05108 -2.50917,-1.86162 -0.27542,-0.39936 -2.09753,-5.0599 -4.04914,-10.35677 l -3.54837,-9.63066 1.61421,-9.49394 c 0.88782,-5.22167 1.68186,-9.37307 1.76454,-9.22534 0.0827,0.14774 3.10008,8.00696 6.70534,17.46493 7.00083,18.36582 6.98252,18.30727 6.26149,20.02597 -0.99397,2.36932 -3.8694,3.78766 -6.2389,3.07743 z M 53.027172,211.4456 c -1.314836,-0.2565 -3.153122,-1.30116 -4.293093,-2.43967 -1.180814,-1.17929 -2.575845,-3.82357 -3.261517,-6.1822 -0.569653,-1.95954 -0.339204,-4.30207 0.612693,-6.2281 0.793421,-1.60538 2.224574,-3.10771 3.656266,-3.8381 0.68586,-0.3499 32.079582,-11.92199 32.743629,-12.06968 0.185976,-0.0414 0.6306,0.75226 1.293427,2.30868 0.555519,1.30443 0.988133,2.3923 0.961367,2.41747 -0.02677,0.0252 -6.583661,2.67896 -14.57088,5.8973 -7.987219,3.21835 -14.776181,5.98243 -15.086583,6.14241 -0.3104,0.15998 -0.660489,0.47049 -0.777976,0.69001 -0.525586,0.98207 -0.252313,1.79923 2.088909,6.24639 2.45048,4.6547 2.547835,5.00063 1.734199,6.16226 -0.600799,0.85776 -3.067717,1.28979 -5.100441,0.89323 z m -8.58971,-22.88542 c 0.05781,-0.25674 0.338571,-1.5248 0.623921,-2.81791 1.12907,-5.1166 3.462783,-10.70323 6.132097,-14.67951 3.572622,-5.32187 8.702941,-9.95755 14.071746,-12.71502 1.70466,-0.87553 4.596647,-2.0995 4.960702,-2.0995 0.06116,0 -0.452118,0.36409 -1.14061,0.80908 -6.942488,4.48715 -10.845218,12.86482 -10.845218,23.28054 0,1.9069 -0.07118,2.65795 -0.259325,2.73614 -0.142629,0.0593 -3.233697,1.42294 -6.869038,3.03037 -3.635343,1.60743 -6.647888,2.92259 -6.694546,2.92259 -0.04666,0 -0.03753,-0.21005 0.02027,-0.46678 z m 42.746075,-10.34465 c -0.569011,-0.11552 -1.820737,-0.57846 -2.781612,-1.02874 -2.209176,-1.03526 -4.540543,-3.29203 -5.556829,-5.37903 -2.407331,-4.94359 -1.509725,-10.46462 2.314478,-14.236 6.670025,-6.57789 17.678887,-3.64195 20.352526,5.4278 0.49411,1.67618 0.49676,4.7717 0.006,6.42241 -1.18659,3.98709 -4.275679,7.24354 -7.994299,8.42742 -1.58136,0.50345 -4.759498,0.687 -6.339768,0.36614 z"
       id="path302" /></g></svg>
